mastitorrents.com
  
http://mastitorrents.com/forums/index.php







----------------------------------------------------------------------------------------------------
----------------------------------------------------------------------------------------------------

LIKE US @ FACEBOOK


1.  http://urlgator.com/efyQx   [MastiTorrentsReleasers]

2.  http://urlgator.com/FG4tl   [MastiTorrents]


[OR]



Search for "MastiTorrentsReleasers" and "MastiTorrents" 



We are waiting for you!!!



----------------------------------------------------------------------------------------------------
----------------------------------------------------------------------------------------------------





****************************************************************************************************
****************************************************************************************************





   8b    d8    db    .dP"Y8 888888 88 888888  dP"Yb  88""Yb 88""Yb 888888 88b 88 888888 .dP"Y8 
   88b  d88   dPYb   `Ybo."   88   88   88   dP   Yb 88__dP 88__dP 88__   88Yb88   88   `Ybo." 
   88YbdP88  dP__Yb  o.`Y8b   88   88   88   Yb   dP 88"Yb  88"Yb  88""   88 Y88   88   o.`Y8b 
   88 YY 88 dP""""Yb 8bodP'   88   88   88    YbodP  88  Yb 88  Yb 888888 88  Y8   88   8bodP' 




****************************************************************************************************
****************************************************************************************************




====================================================================================================

                           MASTI TORRENTS RELEASERS [ MTR ]

                                Where Quality Matters!

====================================================================================================









description:


General
Complete name : D:\Fast Five BRRip Original Tamil audio x264 AAC TDM -=MTR=- mastitorrents.mp4
Format : MPEG-4
Format profile : Base Media / Version 2
Codec ID : mp42
File size : 537 MiB
Duration : 2h 10mn
Overall bit rate : 576 Kbps
Encoded date : UTC 2011-09-07 11:45:15
Tagged date : UTC 2011-09-07 12:10:56
Writing application : HandBrake 0.9.5 2011010300

Video
ID : 1
Format : AVC
Format/Info : Advanced Video Codec
Format profile : Main@L2.1
Format settings, CABAC : Yes
Format settings, ReFrames : 4 frames
Codec ID : avc1
Codec ID/Info : Advanced Video Coding
Duration : 2h 10mn
Bit rate mode : Variable
Bit rate : 501 Kbps
Width : 608 pixels
Height : 256 pixels
Display aspect ratio : 2.35:1
Original display aspect ratio : 2.35:1
Frame rate mode : Variable
Frame rate : 23.976 fps
Minimum frame rate : 19.969 fps
Maximum frame rate : 48.754 fps
Color space : YUV
Chroma subsampling : 4:2:0
Bit depth : 8 bits
Scan type : Progressive
Bits/(Pixel*Frame) : 0.134
Stream size : 471 MiB (88%)
Writing library : x264 core 112
Encoding settings : cabac=1 / ref=2 / deblock=1:0:0 / analyse=0x1:0x111 / me=hex / subme=6 / psy=1 / psy_rd=1.00:0.00 / mixed_ref=0 / me_range=16 / chroma_me=1 / trellis=0 / 8x8dct=0 / cqm=0 / deadzone=21,11 / fast_pskip=1 / chroma_qp_offset=-2 / threads=6 / sliced_threads=0 / nr=0 / decimate=1 / interlaced=0 / constrained_intra=0 / bframes=2 / b_pyramid=2 / b_adapt=1 / b_bias=0 / direct=1 / weightb=0 / open_gop=0 / weightp=2 / keyint=240 / keyint_min=23 / scenecut=40 / intra_refresh=0 / rc_lookahead=40 / rc=abr / mbtree=1 / bitrate=501 / ratetol=1.0 / qcomp=0.60 / qpmin=3 / qpmax=51 / qpstep=4 / ip_ratio=1.40 / aq=1:1.00
Encoded date : UTC 2011-09-07 11:45:15
Tagged date : UTC 2011-09-07 12:10:56
Material_Duration : 7821159
Material_StreamSize : 494281636
Material_FrameCount : 187521
Color primaries : BT.601-6 525, BT.1358 525, BT.1700 NTSC, SMPTE 170M
Transfer characteristics : BT.709-5, BT.1361
Matrix coefficients : BT.601-6 525, BT.1358 525, BT.1700 NTSC, SMPTE 170M

Audio
ID : 2
Format : AAC
Format/Info : Advanced Audio Codec
Format profile : LC
Codec ID : 40
Duration : 2h 10mn
Bit rate mode : Variable
Bit rate : 64.1 Kbps
Maximum bit rate : 115 Kbps
Channel(s) : 2 channels
Channel positions : Front: L R
Sampling rate : 48.0 KHz
Compression mode : Lossy
Stream size : 59.8 MiB (11%)
Language : English
Encoded date : UTC 2011-09-07 11:45:15
Tagged date : UTC 2011-09-07 12:10:55
Material_Duration : 7821141
Material_StreamSize : 62688559

Text
ID : 3
Format : Apple text
Codec ID : text
Duration : 2h 10mn
Bit rate mode : Variable
Bit rate : 1 bps
Stream size : 615 Bytes (0%)
Encoded date : UTC 2011-09-07 11:45:15
Tagged date : UTC 2011-09-07 12:10:56
Material_Duration : 7821159
Material_StreamSize : 615


 
http://www.imdb.com/title/tt1596343/

Credits : Dholga 






Screens/Covers:


 
http://www.shotpix.com/images/30646853510568636564.jpg








****check out my other releases****

 
http://thepiratebay.org/user/tdkdemon/










****************************************************************************************************
****************************************************************************************************





    &lt;&lt;&lt;&lt;&lt;&lt;&lt;SUPERFAST RELEASES BROUGHT TO YOU BY&gt;&gt;&gt;&gt;&gt;&gt;

          


                                  Masti Torrents Releasers [ MTR ]





            8888b.  888888 8b    d8  dP"Yb  88b 88     88888 8b    d8 888888 88""Yb 88888 
             8I  Yb 88__   88b  d88 dP   Yb 88Yb88     88    88b  d88   88   88__dP    88 
             8I  dY 88""   88YbdP88 Yb   dP 88 Y88     88    88YbdP88   88   88"Yb     88 
            8888Y"  888888 88 YY 88  YbodP  88  Y8     88888 88 YY 88   88   88  Yb 88888 





****************************************************************************************************
****************************************************************************************************
